HIERARCHY
ROOT RootJoint
{
    OFFSET   0.000000   0.000000   0.000000
    CHANNELS 6 Xposition Yposition Zposition Xrotation Yrotation Zrotation
    JOINT pelvis_lowerback
    {
        OFFSET   0.000000   0.093605   0.000000
        CHANNELS 3 Xrotation Yrotation Zrotation
        JOINT lowerback_torso
        {
            OFFSET   0.000000   0.100000   0.000000
            CHANNELS 3 Xrotation Yrotation Zrotation
            JOINT torso_head
            {
                OFFSET   0.000000   0.282350   0.000000
                CHANNELS 3 Xrotation Yrotation Zrotation
                End Site
                {
                    OFFSET   0.000000   0.192650   0.000000
                }
            }
            JOINT rTorso_Clavicle
            {
                OFFSET  -0.001000   0.157500   0.000000
                CHANNELS 3 Xrotation Yrotation Zrotation
                JOINT rShoulder
                {
                    OFFSET  -0.117647   0.000000   0.000000
                    CHANNELS 3 Xrotation Yrotation Zrotation
                    JOINT rElbow
                    {
                        OFFSET  -0.245000   0.000000   0.000000
                        CHANNELS 3 Xrotation Yrotation Zrotation
                        JOINT rWrist
                        {
                            OFFSET  -0.240000   0.000000   0.000000
                            CHANNELS 3 Xrotation Yrotation Zrotation
                            End Site
                            {
                                OFFSET  -0.116353  -0.002500   0.000000
                            }
                        }
                    }
                }
            }
            JOINT lTorso_Clavicle
            {
                OFFSET   0.001000   0.157500   0.000000
                CHANNELS 3 Xrotation Yrotation Zrotation
                JOINT lShoulder
                {
                    OFFSET   0.117647   0.000000   0.000000
                    CHANNELS 3 Xrotation Yrotation Zrotation
                    JOINT lElbow
                    {
                        OFFSET   0.245000   0.000000   0.000000
                        CHANNELS 3 Xrotation Yrotation Zrotation
                        JOINT lWrist
                        {
                            OFFSET   0.240000   0.000000   0.000000
                            CHANNELS 3 Xrotation Yrotation Zrotation
                            End Site
                            {
                                OFFSET   0.116353  -0.002500   0.000000
                            }
                        }
                    }
                }
            }
        }
    }
    JOINT rHip
    {
        OFFSET  -0.100000  -0.051395   0.000000
        CHANNELS 3 Xrotation Yrotation Zrotation
        JOINT rKnee
        {
            OFFSET   0.000000  -0.410000   0.000000
            CHANNELS 3 Xrotation Yrotation Zrotation
            JOINT rAnkle
            {
                OFFSET   0.000000  -0.390000   0.000000
                CHANNELS 3 Xrotation Yrotation Zrotation
                JOINT rToeJoint
                {
                    OFFSET   0.000000  -0.050000   0.130000
                    CHANNELS 3 Xrotation Yrotation Zrotation
                    End Site
                    {
                        OFFSET  -0.010000   0.002000   0.060000
                    }
                }
            }
        }
    }
    JOINT lHip
    {
        OFFSET   0.100000  -0.051395   0.000000
        CHANNELS 3 Xrotation Yrotation Zrotation
        JOINT lKnee
        {
            OFFSET   0.000000  -0.410000   0.000000
            CHANNELS 3 Xrotation Yrotation Zrotation
            JOINT lAnkle
            {
                OFFSET   0.000000  -0.390000   0.000000
                CHANNELS 3 Xrotation Yrotation Zrotation
                JOINT lToeJoint
                {
                    OFFSET   0.000000  -0.050000   0.130000
                    CHANNELS 3 Xrotation Yrotation Zrotation
                    End Site
                    {
                        OFFSET   0.010000   0.002000   0.060000
                    }
                }
            }
        }
    }
}
MOTION
Frames: 8
Frame Time:   0.008333
 -2.171550   0.951517   4.395527 -13.106486  15.441933  -3.979135  14.433125 -11.157364   1.504666   3.353094 -11.181832   2.596369   3.834483   0.952767   1.391603   5.611115 -10.374291  -4.847909  16.372160  -0.547516  48.644680   0.001123   8.238371  -0.000504   5.038120   1.681610   6.356057  -1.155407 -15.189970   5.951141  -8.927890 -35.898474 -40.355570   0.001200 -28.919384   0.000326   6.877215  -5.068168  -6.378808 -45.626408  -0.180048   0.462206  17.228941   0.000091  -0.000320   1.328510  -6.520704   6.196876  -3.026848   0.000080   0.000052  11.520258  -1.335477   3.750017   7.750435  -0.000012  -0.000125   6.452695  -3.570574   4.792018 -19.297656  -0.000253   0.000027
 -2.171402   0.951690   4.396041 -13.007635  15.557874  -4.003830  14.322881 -11.184325   1.489741   3.394625 -11.207035   2.540446   3.873080   0.946326   1.441545   5.593821 -10.330549  -4.846170  16.211077  -0.503796  48.549457   0.000932   8.221064  -0.000411   5.034632   1.576304   6.489955  -1.067126 -15.105088   5.924372  -8.743998 -36.041139 -40.359230   0.001236 -29.019458   0.000355   6.870227  -5.102830  -6.393453 -45.467084  -0.102389   0.411182  17.275516   0.000078  -0.000189   1.553476  -6.451726   6.102685  -3.034807   0.000053   0.000029  11.482313  -1.411068   3.777676   7.669253  -0.000011  -0.000129   6.533235  -3.614714   4.783809 -19.374020  -0.000215   0.000022
 -2.171278   0.951981   4.396547 -12.891436  15.680841  -4.043192  14.197061 -11.200936   1.482913   3.422109 -11.218740   2.487451   3.905976   0.937301   1.490825   5.567884 -10.278704  -4.854594  16.050109  -0.454224  48.452797   0.000763   8.212974  -0.000332   5.025350   1.514906   6.611723  -0.963306 -15.012161   5.894560  -8.556739 -36.168118 -40.373538   0.001233 -29.109060   0.000344   6.865347  -5.128989  -6.457130 -45.256992  -0.023679   0.369538  17.351325   0.000068  -0.000033   1.766049  -6.386408   6.014676  -3.032206   0.000046   0.000028  11.413242  -1.490292   3.817270   7.600797  -0.000009  -0.000130   6.669900  -3.658748   4.792275 -19.532884  -0.000182   0.000025
 -2.171192   0.952318   4.397025 -12.755984  15.806700  -4.094894  14.060727 -11.201464   1.477451   3.435976 -11.213838   2.438333   3.933775   0.928539   1.538495   5.538675 -10.222089  -4.869432  15.894302  -0.402995  48.357781   0.000619   8.208984  -0.000267   5.013461   1.480168   6.720757  -0.857335 -14.916849   5.865832  -8.374245 -36.282653 -40.389973   0.001192 -29.190516   0.000301   6.861565  -5.144830  -6.546555 -45.012616   0.050014   0.335946  17.443356   0.000057   0.000122   1.965488  -6.325639   5.932372  -3.027447   0.000043   0.000030  11.319080  -1.571526   3.865809   7.535375  -0.000007  -0.000131   6.824541  -3.702036   4.810318 -19.713557  -0.000141   0.000033
 -2.171144   0.952663   4.397462 -12.601736  15.934177  -4.154495  13.918223 -11.186982   1.469498   3.437432 -11.194129   2.391335   3.957608   0.920454   1.583755   5.507618 -10.162225  -4.888236  15.744561  -0.351191  48.265376   0.000498   8.207780  -0.000214   5.000262   1.462276   6.818332  -0.754881 -14.820454   5.841157  -8.198717 -36.385655 -40.403565   0.001121 -29.264855   0.000241   6.858723  -5.151730  -6.642854 -44.744590   0.118699   0.306602  17.545117   0.000045   0.000262   2.152361  -6.269140   5.855396  -3.021529   0.000042   0.000033  11.204255  -1.654451   3.918728   7.466964  -0.000004  -0.000133   6.980979  -3.745380   4.832935 -19.888293  -0.000099   0.000039
 -2.171131   0.952995   4.397849 -12.430011  16.062338  -4.218897  13.772965 -11.159409   1.457587   3.428340 -11.161793   2.345243   3.978315   0.913067   1.626143   5.475357 -10.100046  -4.909579  15.601035  -0.299307  48.176042   0.000396   8.208745  -0.000171   4.986251   1.456778   6.905466  -0.658335 -14.723764   5.821628  -8.030897 -36.477891 -40.412217   0.001033 -29.332717   0.000172   6.856796  -5.150373  -6.736109 -44.460197   0.182716   0.279204  17.652701   0.000032   0.000382   2.327350  -6.216617   5.783398  -3.014820   0.000042   0.000036  11.072019  -1.738735   3.972819   7.392550  -0.000001  -0.000138   7.131445  -3.789198   4.857348 -20.043697  -0.000062   0.000042
 -2.171150   0.953305   4.398182 -12.242463  16.190304  -4.286107  13.627688 -11.120657   1.441476   3.410787 -11.118846   2.299479   3.996500   0.906340   1.665521   5.442324 -10.036250  -4.932585  15.463686  -0.247670  48.090003   0.000310   8.211474  -0.000138   4.971678   1.461228   6.983066  -0.568491 -14.627455   5.807289  -7.870971 -36.560224 -40.415445   0.000937 -29.394638   0.000103   6.855757  -5.141340  -6.821918 -44.164788   0.242374   0.252683  17.763574   0.000018   0.000479   2.491148  -6.167787   5.716058  -3.007560   0.000042   0.000039  10.924884  -1.823996   4.025998   7.310868   0.000003  -0.000146   7.272281  -3.833538   4.882004 -20.173691  -0.000032   0.000042
 -2.171023   0.953319   4.398746 -12.060474  16.230842  -4.358074  13.321611 -11.013035   1.387608   3.539586 -11.087727   2.296113   4.003738   0.820709   1.688854   5.389152  -9.957793  -5.024910  15.249258  -0.235267  47.970175   0.000010   8.288392  -0.000072   4.981778   1.399656   7.047002  -0.544841 -14.520440   5.755450  -7.652249 -36.562787 -40.481160   0.000899 -29.470350   0.000017   6.824404  -5.169812  -6.796600 -43.777771   0.421927   0.278397  17.753023   0.000012   0.000362   2.637574  -6.108210   5.637443  -3.021353   0.000013   0.000004  10.894582  -1.864558   4.056965   7.094102  -0.000005  -0.000112   7.246113  -3.818766   4.938633 -20.022703  -0.000108   0.000032
